  0
SECTION
  2
HEADER
  9
$ACADVER
  1
AC1009
  9
$DWGCODEPAGE
  3
ANSI_1252
  9
$EXTMIN
 10
1e+20
 20
1e+20
 30
1e+20
  9
$EXTMAX
 10
-1e+20
 20
-1e+20
 30
-1e+20
  9
$LIMMIN
 10
0.0
 20
0.0
  9
$LIMMAX
 10
420.0
 20
297.0
  9
$TDCREATE
 40
2459642.3533796296
  9
$TDUPDATE
 40
2459642.3533796296
  9
$PEXTMIN
 10
1e+20
 20
1e+20
 30
1e+20
  9
$PEXTMAX
 10
-1e+20
 20
-1e+20
 30
-1e+20
  9
$PLIMMIN
 10
0.0
 20
0.0
  9
$PLIMMAX
 10
420.0
 20
297.0
  0
ENDSEC
  0
SECTION
  2
TABLES
  0
TABLE
  2
VPORT
 70
1
  0
VPORT
  2
*Active
 70
0
 10
0.0
 20
0.0
 11
1.0
 21
1.0
 12
0.0
 22
0.0
 13
0.0
 23
0.0
 14
0.5
 24
0.5
 15
0.5
 25
0.5
 16
0.0
 26
0.0
 36
1.0
 17
0.0
 27
0.0
 37
0.0
 40
1000.0
 41
1.34
 42
50.0
 43
0.0
 44
0.0
 50
0.0
 51
0.0
 71
0
 72
1000
 73
1
 74
3
 75
0
 76
0
 77
0
 78
0
  0
ENDTAB
  0
TABLE
  2
LTYPE
 70
10
  0
LTYPE
  2
CONTINUOUS
 70
0
  3
Solid line
 72
65
 73
0
 40
0.0
  0
LTYPE
  2
HIDDEN
 70
0
  3
 _ _ _ _ _ _ _ _ _ _ _
 72
65
 73
2
 40
0.375
 49
0.25
 49
-0.125
  0
LTYPE
  2
DASHED
 70
0
  3
 ___ ___ ___ ___ ___ ___ ___ 
 72
65
 73
2
 40
0.75
 49
0.5
 49
-0.25
  0
LTYPE
  2
CENTER
 70
0
  3
___ _ ___ _ ___ _ ___
 72
65
 73
4
 40
2.0
 49
1.25
 49
-0.25
 49
0.25
 49
-0.25
  0
LTYPE
  2
BORDER
 70
0
  3
___ ___ . ___ ___ . ___ ___
 72
65
 73
6
 40
1.75
 49
0.5
 49
-0.25
 49
0.5
 49
-0.25
 49
0.0
 49
-0.25
  0
LTYPE
  2
DOT
 70
0
  3
.................
 72
65
 73
2
 40
0.25
 49
0.0
 49
-0.25
  0
LTYPE
  2
DASHDOT
 70
0
  3
__ . __ . __ . __
 72
65
 73
4
 40
1.0
 49
0.5
 49
-0.25
 49
0.0
 49
-0.25
  0
LTYPE
  2
DIVIDE
 70
0
  3
___ .. ___ .. ___ .. ___
 72
65
 73
6
 40
1.25
 49
0.5
 49
-0.25
 49
0.0
 49
-0.25
 49
0.0
 49
-0.25
  0
LTYPE
  2
ByBlock
 70
0
  3

 72
65
 73
0
 40
0.0
  0
LTYPE
  2
ByLayer
 70
0
  3

 72
65
 73
0
 40
0.0
  0
ENDTAB
  0
TABLE
  2
LAYER
 70
10
  0
LAYER
  2
BLACK
 70
0
 62
1
  6
CONTINUOUS
  0
LAYER
  2
WHITE
 70
0
 62
7
  6
CONTINUOUS
  0
LAYER
  2
RED
 70
0
 62
1
  6
CONTINUOUS
  0
LAYER
  2
YELLOW
 70
0
 62
2
  6
CONTINUOUS
  0
LAYER
  2
GREEN
 70
0
 62
3
  6
CONTINUOUS
  0
LAYER
  2
CYAN
 70
0
 62
4
  6
CONTINUOUS
  0
LAYER
  2
BLUE
 70
0
 62
5
  6
CONTINUOUS
  0
LAYER
  2
MAGENTA
 70
0
 62
6
  6
CONTINUOUS
  0
LAYER
  2
0
 70
0
 62
7
  6
Continuous
  0
LAYER
  2
Defpoints
 70
0
 62
7
  6
Continuous
  0
ENDTAB
  0
TABLE
  2
STYLE
 70
1
  0
STYLE
  2
Standard
 70
0
 40
0.0
 41
1.0
 50
0.0
 71
0
 42
2.5
  3
txt
  4

  0
ENDTAB
  0
TABLE
  2
VIEW
 70
0
  0
ENDTAB
  0
TABLE
  2
UCS
 70
0
  0
ENDTAB
  0
TABLE
  2
APPID
 70
4
  0
APPID
  2
TC_BEND_DATA
 70
0
  0
APPID
  2
ACAD
 70
0
  0
APPID
  2
HATCHBACKGROUNDCOLOR
 70
0
  0
APPID
  2
EZDXF
 70
0
  0
ENDTAB
  0
TABLE
  2
DIMSTYLE
 70
1
  0
DIMSTYLE
  2
Standard
 70
0
  3

  4

  5

  6

  7

 40
1.0
 41
2.5
 42
0.625
 43
3.75
 44
1.25
 45
0.0
 46
0.0
 47
0.0
 48
0.0
140
2.5
141
2.5
142
0.0
143
0.03937007874
144
1.0
145
0.0
146
1.0
147
0.625
 71
0
 72
0
 73
0
 74
0
 75
0
 76
0
 77
1
 78
8
170
0
171
3
172
1
173
0
174
0
175
0
176
0
177
0
178
0
  0
ENDTAB
  0
ENDSEC
  0
SECTION
  2
BLOCKS
  0
BLOCK
  8
0
  2
$Model_Space
 70
0
 10
0.0
 20
0.0
 30
0.0
  3
$Model_Space
  1

1001
EZDXF
1000
WRITTEN_BY_EZDXF
1000
0.17.2 @ 2022-03-03T07:28:52.999209+00:00
  0
ENDBLK
  8
0
  0
BLOCK
  8
0
  2
$Paper_Space
 70
0
 10
0.0
 20
0.0
 30
0.0
  3
$Paper_Space
  1

  0
ENDBLK
  8
0
  0
ENDSEC
  0
SECTION
  2
ENTITIES
  0
LINE
  8
WHITE
  6
CONTINUOUS
 10
53.658168
 20
50.98441
 30
0.0
 11
53.8485
 21
51.165182
 31
0.0
  0
LINE
  8
WHITE
  6
CONTINUOUS
 10
50.796284
 20
59.584512
 30
0.0
 11
47.492256
 21
59.584512
 31
0.0
  0
LINE
  8
WHITE
  6
CONTINUOUS
 10
47.492256
 20
59.584512
 30
0.0
 11
47.492256
 21
74.984512
 31
0.0
  0
LINE
  8
WHITE
  6
CONTINUOUS
 10
47.492256
 20
74.984512
 30
0.0
 11
494.492256
 21
74.984512
 31
0.0
  0
LINE
  8
WHITE
  6
CONTINUOUS
 10
494.492256
 20
74.984512
 30
0.0
 11
494.492256
 21
59.584512
 31
0.0
  0
LINE
  8
WHITE
  6
CONTINUOUS
 10
494.492256
 20
59.584512
 30
0.0
 11
491.188228
 21
59.584512
 31
0.0
  0
LINE
  8
WHITE
  6
CONTINUOUS
 10
488.136012
 20
51.165183
 30
0.0
 11
488.309221
 21
50.99979
 31
0.0
  0
LINE
  8
WHITE
  6
CONTINUOUS
 10
496.584512
 20
54.188228
 30
0.0
 11
496.584512
 21
54.392256
 31
0.0
  0
LINE
  8
WHITE
  6
CONTINUOUS
 10
496.584512
 20
54.392256
 30
0.0
 11
535.984512
 21
54.392256
 31
0.0
  0
LINE
  8
WHITE
  6
CONTINUOUS
 10
541.984512
 20
48.392256
 30
0.0
 11
541.984512
 21
26.592256
 31
0.0
  0
LINE
  8
WHITE
  6
CONTINUOUS
 10
535.984512
 20
20.592256
 30
0.0
 11
496.584512
 21
20.592256
 31
0.0
  0
LINE
  8
WHITE
  6
CONTINUOUS
 10
496.584512
 20
20.592256
 30
0.0
 11
496.584512
 21
20.796284
 31
0.0
  0
LINE
  8
WHITE
  6
CONTINUOUS
 10
488.326344
 20
24.000101
 30
0.0
 11
488.136012
 21
23.819329
 31
0.0
  0
LINE
  8
WHITE
  6
CONTINUOUS
 10
491.188228
 20
15.4
 30
0.0
 11
494.492256
 21
15.4
 31
0.0
  0
LINE
  8
WHITE
  6
CONTINUOUS
 10
494.492256
 20
15.4
 30
0.0
 11
494.492256
 21
0.0
 31
0.0
  0
LINE
  8
WHITE
  6
CONTINUOUS
 10
494.492256
 20
0.0
 30
0.0
 11
47.492256
 21
0.0
 31
0.0
  0
LINE
  8
WHITE
  6
CONTINUOUS
 10
47.492256
 20
0.0
 30
0.0
 11
47.492256
 21
15.4
 31
0.0
  0
LINE
  8
WHITE
  6
CONTINUOUS
 10
47.492256
 20
15.4
 30
0.0
 11
50.796284
 21
15.4
 31
0.0
  0
LINE
  8
WHITE
  6
CONTINUOUS
 10
53.848499
 20
23.819329
 30
0.0
 11
53.675291
 21
23.984722
 31
0.0
  0
LINE
  8
WHITE
  6
CONTINUOUS
 10
45.4
 20
20.796284
 30
0.0
 11
45.4
 21
20.592256
 31
0.0
  0
LINE
  8
WHITE
  6
CONTINUOUS
 10
45.4
 20
20.592256
 30
0.0
 11
6.0
 21
20.592256
 31
0.0
  0
LINE
  8
WHITE
  6
CONTINUOUS
 10
0.0
 20
26.592256
 30
0.0
 11
0.0
 21
48.392256
 31
0.0
  0
LINE
  8
WHITE
  6
CONTINUOUS
 10
6.0
 20
54.392256
 30
0.0
 11
45.4
 21
54.392256
 31
0.0
  0
LINE
  8
WHITE
  6
CONTINUOUS
 10
45.4
 20
54.392256
 30
0.0
 11
45.400001
 21
54.188228
 31
0.0
  0
CIRCLE
  8
WHITE
  6
CONTINUOUS
 10
7.7
 20
37.492256
 30
0.0
 40
3.4
  0
CIRCLE
  8
WHITE
  6
CONTINUOUS
 10
37.7
 20
37.492256
 30
0.0
 40
3.4
  0
CIRCLE
  8
WHITE
  6
CONTINUOUS
 10
504.284512
 20
37.492256
 30
0.0
 40
3.4
  0
CIRCLE
  8
WHITE
  6
CONTINUOUS
 10
534.284512
 20
37.492256
 30
0.0
 40
3.4
  0
CIRCLE
  8
WHITE
  6
CONTINUOUS
 10
70.255401
 20
37.47864
 30
0.0
 40
2.5
  0
CIRCLE
  8
WHITE
  6
CONTINUOUS
 10
471.729111
 20
37.505872
 30
0.0
 40
2.5
  0
LINE
  8
0
 10
50.24612892429662
 20
49.92760757907502
 30
0.0
 11
53.65816780792617
 21
50.98440995917061
 31
0.0
  0
LINE
  8
0
 10
53.848499753206326
 20
51.1651822903295
 30
0.0
 11
55.0569054401236
 21
54.73838392697423
 31
0.0
  0
LINE
  8
0
 10
55.05690542092498
 20
54.73838392429662
 30
0.0
 11
54.02260129034323
 21
58.12503560920958
 31
0.0
  0
LINE
  8
0
 10
54.02260129034323
 20
58.12503560920958
 30
0.0
 11
50.796283986923115
 21
59.58451199720435
 31
0.0
  0
LINE
  8
0
 10
491.1882278883532
 20
59.58451199716363
 30
0.0
 11
487.96191136309443
 21
58.12503521502161
 31
0.0
  0
LINE
  8
0
 10
487.96191136309443
 20
58.12503521502161
 30
0.0
 11
486.9276075694757
 21
54.73838399866119
 31
0.0
  0
LINE
  8
0
 10
486.9276075694757
 20
54.73838400133881
 30
0.0
 11
488.136012297027
 21
51.1651832492602
 31
0.0
  0
LINE
  8
0
 10
488.3092205642976
 20
50.99978968543148
 30
0.0
 11
491.7383840013388
 21
49.92760756947571
 31
0.0
  0
LINE
  8
0
 10
491.7383839986612
 20
49.92760756947571
 30
0.0
 11
495.1250352431779
 21
50.96191138784887
 31
0.0
  0
LINE
  8
0
 10
495.1250352431779
 20
50.96191138784887
 30
0.0
 11
496.5845119971664
 21
54.18822796333479
 31
0.0
  0
LINE
  8
0
 10
541.984512
 20
48.392256
 30
0.0
 11
540.2271526871193
 21
52.63489668711929
 31
0.0
  0
LINE
  8
0
 10
540.2271526871193
 20
52.63489668711929
 30
0.0
 11
535.984512
 21
54.392256
 31
0.0
  0
LINE
  8
0
 10
535.984512
 20
20.592256
 30
0.0
 11
540.2271526871193
 21
22.349615312880715
 31
0.0
  0
LINE
  8
0
 10
540.2271526871193
 20
22.349615312880715
 30
0.0
 11
541.984512
 21
26.592256
 31
0.0
  0
LINE
  8
0
 10
496.5845119971854
 20
20.79628351179416
 30
0.0
 11
495.1250354402719
 21
24.022600438869954
 31
0.0
  0
LINE
  8
0
 10
495.1250354402719
 20
24.022600438869954
 30
0.0
 11
491.7383839986612
 21
25.05690443052429
 31
0.0
  0
LINE
  8
0
 10
491.7383840013388
 20
25.05690443052429
 30
0.0
 11
488.3263440177562
 21
24.000100991837158
 31
0.0
  0
LINE
  8
0
 10
488.1360124025566
 20
23.81932885728767
 30
0.0
 11
486.9276075694757
 21
20.246127998661194
 31
0.0
  0
LINE
  8
0
 10
486.9276075694757
 20
20.246128001338807
 30
0.0
 11
487.9619113878489
 21
16.859476756822104
 31
0.0
  0
LINE
  8
0
 10
487.9619113878489
 20
16.859476756822104
 30
0.0
 11
491.1882279633348
 21
15.40000000283365
 31
0.0
  0
LINE
  8
0
 10
50.79628411164679
 20
15.400000002836375
 30
0.0
 11
54.02260063690558
 21
16.85947678497839
 31
0.0
  0
LINE
  8
0
 10
54.02260063690558
 20
16.85947678497839
 30
0.0
 11
55.05690443052429
 21
20.246128001338807
 31
0.0
  0
LINE
  8
0
 10
55.05690443052429
 20
20.246127998661194
 30
0.0
 11
53.84849922808971
 21
23.819329230205188
 31
0.0
  0
LINE
  8
0
 10
53.67529143570235
 20
23.98472231456852
 30
0.0
 11
50.246127998661194
 21
25.05690443052429
 31
0.0
  0
LINE
  8
0
 10
50.24612800133881
 20
25.05690443052429
 30
0.0
 11
46.859476756822104
 21
24.022600612151127
 31
0.0
  0
LINE
  8
0
 10
46.859476756822104
 20
24.022600612151127
 30
0.0
 11
45.40000000283365
 21
20.796284036665213
 31
0.0
  0
LINE
  8
0
 10
0.0
 20
26.592256
 30
0.0
 11
1.7573593128807143
 21
22.349615312880715
 31
0.0
  0
LINE
  8
0
 10
1.7573593128807143
 20
22.349615312880715
 30
0.0
 11
5.999999999999999
 21
20.592256
 31
0.0
  0
LINE
  8
0
 10
6.0
 20
54.392256
 30
0.0
 11
1.7573593128807152
 21
52.63489668711929
 31
0.0
  0
LINE
  8
0
 10
1.7573593128807152
 20
52.63489668711929
 30
0.0
 11
0.0
 21
48.392256
 31
0.0
  0
LINE
  8
0
 10
45.400001002836376
 20
54.188227888353204
 30
0.0
 11
46.8594777568221
 21
50.96191138784887
 31
0.0
  0
LINE
  8
0
 10
46.8594777568221
 20
50.96191138784887
 30
0.0
 11
50.24612892697423
 21
49.9276075598764
 31
0.0
  0
ENDSEC
  0
EOF
