  0
SECTION
  2
HEADER
  9
$ACADVER
  1
AC1009
  9
$DWGCODEPAGE
  3
ANSI_1252
  9
$EXTMIN
 10
1e+20
 20
1e+20
 30
1e+20
  9
$EXTMAX
 10
-1e+20
 20
-1e+20
 30
-1e+20
  9
$LIMMIN
 10
0.0
 20
0.0
  9
$LIMMAX
 10
420.0
 20
297.0
  9
$TDCREATE
 40
2459642.366585648
  9
$TDUPDATE
 40
2459642.366597222
  9
$PEXTMIN
 10
1e+20
 20
1e+20
 30
1e+20
  9
$PEXTMAX
 10
-1e+20
 20
-1e+20
 30
-1e+20
  9
$PLIMMIN
 10
0.0
 20
0.0
  9
$PLIMMAX
 10
420.0
 20
297.0
  0
ENDSEC
  0
SECTION
  2
TABLES
  0
TABLE
  2
VPORT
 70
1
  0
VPORT
  2
*Active
 70
0
 10
0.0
 20
0.0
 11
1.0
 21
1.0
 12
0.0
 22
0.0
 13
0.0
 23
0.0
 14
0.5
 24
0.5
 15
0.5
 25
0.5
 16
0.0
 26
0.0
 36
1.0
 17
0.0
 27
0.0
 37
0.0
 40
1000.0
 41
1.34
 42
50.0
 43
0.0
 44
0.0
 50
0.0
 51
0.0
 71
0
 72
1000
 73
1
 74
3
 75
0
 76
0
 77
0
 78
0
  0
ENDTAB
  0
TABLE
  2
LTYPE
 70
10
  0
LTYPE
  2
CONTINUOUS
 70
0
  3
Solid line
 72
65
 73
0
 40
0.0
  0
LTYPE
  2
HIDDEN
 70
0
  3
 _ _ _ _ _ _ _ _ _ _ _
 72
65
 73
2
 40
0.375
 49
0.25
 49
-0.125
  0
LTYPE
  2
DASHED
 70
0
  3
 ___ ___ ___ ___ ___ ___ ___ 
 72
65
 73
2
 40
0.75
 49
0.5
 49
-0.25
  0
LTYPE
  2
CENTER
 70
0
  3
___ _ ___ _ ___ _ ___
 72
65
 73
4
 40
2.0
 49
1.25
 49
-0.25
 49
0.25
 49
-0.25
  0
LTYPE
  2
BORDER
 70
0
  3
___ ___ . ___ ___ . ___ ___
 72
65
 73
6
 40
1.75
 49
0.5
 49
-0.25
 49
0.5
 49
-0.25
 49
0.0
 49
-0.25
  0
LTYPE
  2
DOT
 70
0
  3
.................
 72
65
 73
2
 40
0.25
 49
0.0
 49
-0.25
  0
LTYPE
  2
DASHDOT
 70
0
  3
__ . __ . __ . __
 72
65
 73
4
 40
1.0
 49
0.5
 49
-0.25
 49
0.0
 49
-0.25
  0
LTYPE
  2
DIVIDE
 70
0
  3
___ .. ___ .. ___ .. ___
 72
65
 73
6
 40
1.25
 49
0.5
 49
-0.25
 49
0.0
 49
-0.25
 49
0.0
 49
-0.25
  0
LTYPE
  2
ByBlock
 70
0
  3

 72
65
 73
0
 40
0.0
  0
LTYPE
  2
ByLayer
 70
0
  3

 72
65
 73
0
 40
0.0
  0
ENDTAB
  0
TABLE
  2
LAYER
 70
10
  0
LAYER
  2
BLACK
 70
0
 62
1
  6
CONTINUOUS
  0
LAYER
  2
WHITE
 70
0
 62
7
  6
CONTINUOUS
  0
LAYER
  2
RED
 70
0
 62
1
  6
CONTINUOUS
  0
LAYER
  2
YELLOW
 70
0
 62
2
  6
CONTINUOUS
  0
LAYER
  2
GREEN
 70
0
 62
3
  6
CONTINUOUS
  0
LAYER
  2
CYAN
 70
0
 62
4
  6
CONTINUOUS
  0
LAYER
  2
BLUE
 70
0
 62
5
  6
CONTINUOUS
  0
LAYER
  2
MAGENTA
 70
0
 62
6
  6
CONTINUOUS
  0
LAYER
  2
0
 70
0
 62
7
  6
Continuous
  0
LAYER
  2
Defpoints
 70
0
 62
7
  6
Continuous
  0
ENDTAB
  0
TABLE
  2
STYLE
 70
1
  0
STYLE
  2
Standard
 70
0
 40
0.0
 41
1.0
 50
0.0
 71
0
 42
2.5
  3
txt
  4

  0
ENDTAB
  0
TABLE
  2
VIEW
 70
0
  0
ENDTAB
  0
TABLE
  2
UCS
 70
0
  0
ENDTAB
  0
TABLE
  2
APPID
 70
4
  0
APPID
  2
TC_BEND_DATA
 70
0
  0
APPID
  2
ACAD
 70
0
  0
APPID
  2
HATCHBACKGROUNDCOLOR
 70
0
  0
APPID
  2
EZDXF
 70
0
  0
ENDTAB
  0
TABLE
  2
DIMSTYLE
 70
1
  0
DIMSTYLE
  2
Standard
 70
0
  3

  4

  5

  6

  7

 40
1.0
 41
2.5
 42
0.625
 43
3.75
 44
1.25
 45
0.0
 46
0.0
 47
0.0
 48
0.0
140
2.5
141
2.5
142
0.0
143
0.03937007874
144
1.0
145
0.0
146
1.0
147
0.625
 71
0
 72
0
 73
0
 74
0
 75
0
 76
0
 77
1
 78
8
170
0
171
3
172
1
173
0
174
0
175
0
176
0
177
0
178
0
  0
ENDTAB
  0
ENDSEC
  0
SECTION
  2
BLOCKS
  0
BLOCK
  8
0
  2
$Model_Space
 70
0
 10
0.0
 20
0.0
 30
0.0
  3
$Model_Space
  1

1001
EZDXF
1000
WRITTEN_BY_EZDXF
1000
0.17.2 @ 2022-03-03T07:47:54.018837+00:00
  0
ENDBLK
  8
0
  0
BLOCK
  8
0
  2
$Paper_Space
 70
0
 10
0.0
 20
0.0
 30
0.0
  3
$Paper_Space
  1

  0
ENDBLK
  8
0
  0
ENDSEC
  0
SECTION
  2
ENTITIES
  0
LINE
  8
WHITE
  6
CONTINUOUS
 10
101.713571
 20
1.110025
 30
0.0
 11
152.869066
 21
16.88332
 31
0.0
  0
LINE
  8
WHITE
  6
CONTINUOUS
 10
152.869066
 20
16.88332
 30
0.0
 11
155.545549
 21
17.5
 31
0.0
  0
LINE
  8
WHITE
  6
CONTINUOUS
 10
155.545549
 20
17.5
 30
0.0
 11
192.469929
 21
20.730465
 31
0.0
  0
LINE
  8
WHITE
  6
CONTINUOUS
 10
192.469929
 20
49.269536
 30
0.0
 11
155.545549
 21
52.5
 31
0.0
  0
LINE
  8
WHITE
  6
CONTINUOUS
 10
155.545549
 20
52.5
 30
0.0
 11
152.869066
 21
53.11668
 31
0.0
  0
LINE
  8
WHITE
  6
CONTINUOUS
 10
152.869066
 20
53.11668
 30
0.0
 11
101.713571
 21
68.889975
 31
0.0
  0
LINE
  8
WHITE
  6
CONTINUOUS
 10
101.713571
 20
68.889975
 30
0.0
 11
99.037088
 21
70.0
 31
0.0
  0
LINE
  8
WHITE
  6
CONTINUOUS
 10
99.037088
 20
70.0
 30
0.0
 11
10.0
 21
70.0
 31
0.0
  0
LINE
  8
WHITE
  6
CONTINUOUS
 10
0.0
 20
60.0
 30
0.0
 11
0.0
 21
10.0
 31
0.0
  0
LINE
  8
WHITE
  6
CONTINUOUS
 10
10.0
 20
0.0
 30
0.0
 11
99.037088
 21
0.0
 31
0.0
  0
LINE
  8
WHITE
  6
CONTINUOUS
 10
99.037088
 20
0.0
 30
0.0
 11
101.713571
 21
1.110025
 31
0.0
  0
CIRCLE
  8
WHITE
  6
CONTINUOUS
 10
20.0
 20
10.5
 30
0.0
 40
4.25
  0
CIRCLE
  8
WHITE
  6
CONTINUOUS
 10
20.0
 20
59.5
 30
0.0
 40
4.25
  0
CIRCLE
  8
WHITE
  6
CONTINUOUS
 10
80.0
 20
10.5
 30
0.0
 40
4.25
  0
CIRCLE
  8
WHITE
  6
CONTINUOUS
 10
80.0
 20
59.5
 30
0.0
 40
4.25
  0
LINE
  8
0
 10
192.46992901775937
 20
20.73046534793469
 30
0.0
 11
201.7822977914644
 21
25.32281776780544
 31
0.0
  0
LINE
  8
0
 10
201.7822977914644
 20
25.32281776780544
 30
0.0
 11
205.545548
 21
35.0000002500017
 31
0.0
  0
LINE
  8
0
 10
205.545548
 20
35.0000002500017
 30
0.0
 11
201.782297453667
 21
44.67718260083572
 31
0.0
  0
LINE
  8
0
 10
201.782297453667
 20
44.67718260083572
 30
0.0
 11
192.46992851965865
 21
49.269534695643486
 31
0.0
  0
LINE
  8
0
 10
10.0
 20
70.0
 30
0.0
 11
2.9289321881345254
 21
67.07106781186548
 31
0.0
  0
LINE
  8
0
 10
2.9289321881345254
 20
67.07106781186548
 30
0.0
 11
0.0
 21
60.0
 31
0.0
  0
LINE
  8
0
 10
0.0
 20
10.000000000000002
 30
0.0
 11
2.9289321881345227
 21
2.9289321881345254
 31
0.0
  0
LINE
  8
0
 10
2.9289321881345227
 20
2.9289321881345254
 30
0.0
 11
9.999999999999998
 21
0.0
 31
0.0
  0
LINE
  8
0
 10
173.03773852087153
 20
38.87499995129831
 30
0.0
 11
173.03773852087153
 21
31.125000048701686
 31
0.0
  0
LINE
  8
0
 10
164.32352573186594
 20
28.8750000141392
 30
0.0
 11
167.47635743294555
 21
25.664135291877084
 31
0.0
  0
LINE
  8
0
 10
167.47635743294555
 20
25.664135291877084
 30
0.0
 11
171.83346370107964
 21
26.789135277737884
 31
0.0
  0
LINE
  8
0
 10
171.83346370107964
 20
26.789135277737884
 30
0.0
 11
173.03773826813406
 21
31.1249999858608
 31
0.0
  0
LINE
  8
0
 10
164.3235259846034
 20
41.12499992301991
 30
0.0
 11
164.3235259846034
 21
28.875000076980086
 31
0.0
  0
LINE
  8
0
 10
173.03773826813406
 20
38.8750000141392
 30
0.0
 11
171.83346370107964
 21
43.210864722262116
 31
0.0
  0
LINE
  8
0
 10
171.83346370107964
 20
43.210864722262116
 30
0.0
 11
167.47635743294555
 21
44.33586470812291
 31
0.0
  0
LINE
  8
0
 10
167.47635743294555
 20
44.33586470812291
 30
0.0
 11
164.32352573186594
 21
41.124999985860796
 31
0.0
  0
LINE
  8
0
 10
185.05335947912846
 20
31.125000048701683
 30
0.0
 11
185.05335947912846
 21
38.87499995129831
 31
0.0
  0
LINE
  8
0
 10
193.76757226813407
 20
41.1249999858608
 30
0.0
 11
190.61474056705447
 21
44.33586470812292
 31
0.0
  0
LINE
  8
0
 10
190.61474056705447
 20
44.33586470812292
 30
0.0
 11
186.25763429892038
 21
43.210864722262116
 31
0.0
  0
LINE
  8
0
 10
186.25763429892038
 20
43.210864722262116
 30
0.0
 11
185.05335973186595
 21
38.8750000141392
 31
0.0
  0
LINE
  8
0
 10
193.76757201539658
 20
28.87500007698008
 30
0.0
 11
193.76757201539658
 21
41.12499992301991
 31
0.0
  0
LINE
  8
0
 10
185.05335973186595
 20
31.1249999858608
 30
0.0
 11
186.25763429892038
 21
26.789135277737884
 31
0.0
  0
LINE
  8
0
 10
186.25763429892038
 20
26.789135277737884
 30
0.0
 11
190.61474056705447
 21
25.664135291877084
 31
0.0
  0
LINE
  8
0
 10
190.61474056705447
 20
25.664135291877084
 30
0.0
 11
193.76757226813407
 21
28.875000014139196
 31
0.0
  0
ENDSEC
  0
EOF
